<svg width="1080" height="1080" viewBox="0 0 1080 1080" fill="none" xmlns="http://www.w3.org/2000/svg">
<path d="M415.461 524.081V251H499.696V524.081H415.461ZM231 524.081V251H315.236V524.081H231ZM262.588 425.382L262.978 352.04H463.038V425.382H262.588Z" fill="#6081F7"/>
<path d="M660.764 524.081V322.781H565.609V251H842.495V322.781H745V524.081H660.764Z" fill="#6081F7"/>
<path d="M231 829.436V556.355H303.536L412.731 715.132L355.794 714.742L466.158 556.355H537.135V829.436H456.019V762.726C456.019 740.099 456.539 719.423 457.579 700.698C458.879 681.712 460.958 662.726 463.818 643.741L472.788 669.098L396.352 772.089H370.613L294.567 668.318L304.316 643.741C307.176 662.206 309.126 680.802 310.166 699.527C311.466 717.993 312.116 739.059 312.116 762.726V829.436H231Z" fill="#6081F7"/>
<path d="M625.931 829.436V556.355H710.167V757.655H849V829.436H625.931Z" fill="#6081F7"/>
</svg>
