<svg width="37" height="33" viewBox="0 0 37 33" fill="none" xmlns="http://www.w3.org/2000/svg">
<path d="M26.0951 21.2647C29.8264 17.7554 33.0778 14.6675 36.4095 11.5554C32.8976 7.83225 29.8043 4.56973 26.6943 1.24669C25.7022 2.17349 24.9442 2.88489 23.9793 3.78653C25.8131 5.74378 27.7455 7.78509 29.3417 9.48015L17.5576 9.12744C16.9763 9.11015 16.4314 9.62652 16.4138 10.2114L16.3692 11.7011C16.3517 12.2861 16.8646 12.8342 17.4458 12.8517L29.2299 13.2044C27.3315 14.9874 25.4408 16.7784 23.5371 18.5557C24.4025 19.4642 25.3343 20.4635 26.0951 21.2647Z" fill="white"/>
<path d="M26.0951 21.2647C29.8264 17.7554 33.0778 14.6675 36.4095 11.5554C32.8976 7.83225 29.8043 4.56973 26.6943 1.24669C25.7022 2.17349 24.9442 2.88489 23.9793 3.78653C25.8131 5.74378 27.7455 7.78509 29.3417 9.48015L17.5576 9.12744C16.9763 9.11015 16.4314 9.62652 16.4138 10.2114L16.3692 11.7011C16.3517 12.2861 16.8646 12.8342 17.4458 12.8517L29.2299 13.2044C27.3315 14.9874 25.4408 16.7784 23.5371 18.5557C24.4025 19.4642 25.3343 20.4635 26.0951 21.2647Z" fill="white"/>
<path d="M26.0951 21.2647C29.8264 17.7554 33.0778 14.6675 36.4095 11.5554C32.8976 7.83225 29.8043 4.56973 26.6943 1.24669C25.7022 2.17349 24.9442 2.88489 23.9793 3.78653C25.8131 5.74378 27.7455 7.78509 29.3417 9.48015L17.5576 9.12744C16.9763 9.11015 16.4314 9.62652 16.4138 10.2114L16.3692 11.7011C16.3517 12.2861 16.8646 12.8342 17.4458 12.8517L29.2299 13.2044C27.3315 14.9874 25.4408 16.7784 23.5371 18.5557C24.4025 19.4642 25.3343 20.4635 26.0951 21.2647Z" fill="white"/>
<path d="M26.0951 21.2647C29.8264 17.7554 33.0778 14.6675 36.4095 11.5554C32.8976 7.83225 29.8043 4.56973 26.6943 1.24669C25.7022 2.17349 24.9442 2.88489 23.9793 3.78653C25.8131 5.74378 27.7455 7.78509 29.3417 9.48015L17.5576 9.12744C16.9763 9.11015 16.4314 9.62652 16.4138 10.2114L16.3692 11.7011C16.3517 12.2861 16.8646 12.8342 17.4458 12.8517L29.2299 13.2044C27.3315 14.9874 25.4408 16.7784 23.5371 18.5557C24.4025 19.4642 25.3343 20.4635 26.0951 21.2647Z" fill="white"/>
<path d="M10.0119 11.5783C6.38725 15.1977 3.22966 18.3815 -0.00740258 21.5918C3.6143 25.2083 6.80379 28.3768 10.0119 31.6053C10.9758 30.6493 11.7122 29.9155 12.6496 28.9854C10.7581 27.0839 8.76551 25.1013 7.11932 23.4548L18.9087 23.4548C19.4903 23.4547 20.0194 22.9222 20.0196 22.3371L20.0196 20.8467C20.0195 20.2614 19.4904 19.729 18.909 19.7288L7.11959 19.7288C8.96384 17.8898 10.8001 16.043 12.6498 14.2096C11.7576 13.3275 10.7963 12.3564 10.0119 11.5783Z" fill="white"/>
<path d="M10.0119 11.5783C6.38725 15.1977 3.22966 18.3815 -0.00740258 21.5918C3.6143 25.2083 6.80379 28.3768 10.0119 31.6053C10.9758 30.6493 11.7122 29.9155 12.6496 28.9854C10.7581 27.0839 8.76551 25.1013 7.11932 23.4548L18.9087 23.4548C19.4903 23.4547 20.0194 22.9222 20.0196 22.3371L20.0196 20.8467C20.0195 20.2614 19.4904 19.729 18.909 19.7288L7.11959 19.7288C8.96384 17.8898 10.8001 16.043 12.6498 14.2096C11.7576 13.3275 10.7963 12.3564 10.0119 11.5783Z" fill="white"/>
<path d="M10.0119 11.5783C6.38725 15.1977 3.22966 18.3815 -0.00740258 21.5918C3.6143 25.2083 6.80379 28.3768 10.0119 31.6053C10.9758 30.6493 11.7122 29.9155 12.6496 28.9854C10.7581 27.0839 8.76551 25.1013 7.11932 23.4548L18.9087 23.4548C19.4903 23.4547 20.0194 22.9222 20.0196 22.3371L20.0196 20.8467C20.0195 20.2614 19.4904 19.729 18.909 19.7288L7.11959 19.7288C8.96384 17.8898 10.8001 16.043 12.6498 14.2096C11.7576 13.3275 10.7963 12.3564 10.0119 11.5783Z" fill="white"/>
<path d="M10.0119 11.5783C6.38725 15.1977 3.22966 18.3815 -0.00740258 21.5918C3.6143 25.2083 6.80379 28.3768 10.0119 31.6053C10.9758 30.6493 11.7122 29.9155 12.6496 28.9854C10.7581 27.0839 8.76551 25.1013 7.11932 23.4548L18.9087 23.4548C19.4903 23.4547 20.0194 22.9222 20.0196 22.3371L20.0196 20.8467C20.0195 20.2614 19.4904 19.729 18.909 19.7288L7.11959 19.7288C8.96384 17.8898 10.8001 16.043 12.6498 14.2096C11.7576 13.3275 10.7963 12.3564 10.0119 11.5783Z" fill="white"/>
</svg>
