<svg width="424" height="70" viewBox="0 0 424 70" fill="none" xmlns="http://www.w3.org/2000/svg">
<g clip-path="url(#clip0_1_2)">
<path d="M40.1333 59.3939V0H58.4606V59.3939H40.1333ZM0 59.3939V0H18.3273V59.3939H0ZM6.87273 37.9273L6.95758 21.9758H50.4848V37.9273H6.87273Z" fill="black"/>
<path d="M93.5043 59.3939V15.6121H72.8013V0H133.044V15.6121H111.832V59.3939H93.5043Z" fill="black"/>
<path d="M147.491 59.3939V0H163.272L187.03 34.5333L174.642 34.4485L198.654 0H214.097V59.3939H196.448V44.8849C196.448 39.9636 196.561 35.4667 196.788 31.3939C197.07 27.2646 197.523 23.1354 198.145 19.0061L200.097 24.5212L183.466 46.9212H177.866L161.321 24.3515L163.442 19.0061C164.064 23.0222 164.489 27.0667 164.715 31.1394C164.998 35.1556 165.139 39.7374 165.139 44.8849V59.3939H147.491Z" fill="black"/>
<path d="M233.416 59.3939V0H251.743V43.7818H281.95V59.3939H233.416Z" fill="black"/>
<path d="M300.746 59.3939V29.697H310.163V59.3939H300.746ZM295.782 43.7058V36.1932H318.623V43.7058H295.782Z" fill="#F1F1F1"/>
<path d="M333.813 60.2336C331.37 60.2336 329.236 59.718 327.411 58.6869C325.618 57.6557 324.21 56.2268 323.19 54.4002C322.2 52.5442 321.705 50.4082 321.705 47.9924C321.705 45.5766 322.2 43.4554 323.19 41.6288C324.21 39.7727 325.633 38.3291 327.458 37.298C329.283 36.2374 331.417 35.7071 333.86 35.7071C335.19 35.7071 336.411 35.8691 337.525 36.1932C338.669 36.4878 339.659 36.915 340.494 37.4747C341.36 38.005 342.071 38.5943 342.628 39.2424C343.215 39.8906 343.664 40.5682 343.973 41.2752L341.978 41.4078V36.1932H351.164V59.3939H341.746V53.6932L343.741 54.1351C343.494 54.9305 343.076 55.6965 342.489 56.4331C341.932 57.1696 341.221 57.8178 340.355 58.3775C339.489 58.9373 338.499 59.3939 337.386 59.7475C336.303 60.0715 335.112 60.2336 333.813 60.2336ZM336.458 52.9419C337.602 52.9419 338.592 52.7504 339.427 52.3674C340.262 51.9844 340.896 51.4247 341.329 50.6881C341.762 49.9516 341.978 49.053 341.978 47.9924C341.978 46.9613 341.762 46.0774 341.329 45.3409C340.896 44.5749 340.262 44.0004 339.427 43.6174C338.592 43.205 337.602 42.9987 336.458 42.9987C335.282 42.9987 334.277 43.205 333.442 43.6174C332.638 44.0004 332.02 44.5749 331.587 45.3409C331.154 46.0774 330.937 46.9613 330.937 47.9924C330.937 49.053 331.154 49.9516 331.587 50.6881C332.02 51.4247 332.638 51.9844 333.442 52.3674C334.277 52.7504 335.282 52.9419 336.458 52.9419Z" fill="#F1F1F1"/>
<path d="M375.349 70C372.689 70 370.215 69.6906 367.926 69.072C365.638 68.4827 363.767 67.7315 362.313 66.8182L365.468 60.7197C366.179 61.0732 366.937 61.3973 367.741 61.6919C368.545 62.016 369.426 62.2664 370.385 62.4432C371.375 62.6494 372.473 62.7525 373.679 62.7525C375.163 62.7525 376.401 62.5316 377.39 62.0896C378.38 61.6772 379.122 61.0143 379.617 60.101C380.143 59.1877 380.406 58.0534 380.406 56.6982V53.8699L382.493 54.0467C382.215 55.0189 381.581 55.888 380.591 56.654C379.602 57.42 378.364 58.0387 376.88 58.5101C375.426 58.952 373.849 59.173 372.148 59.173C369.767 59.173 367.664 58.7016 365.839 57.7588C364.045 56.8161 362.622 55.505 361.571 53.8257C360.55 52.117 360.04 50.1136 360.04 47.8156C360.04 45.4293 360.566 43.3375 361.617 41.5404C362.669 39.7138 364.107 38.2849 365.932 37.2538C367.756 36.2226 369.875 35.7071 372.287 35.7071C373.122 35.7071 373.988 35.7954 374.885 35.9722C375.813 36.1195 376.71 36.3405 377.576 36.6351C378.442 36.9002 379.23 37.2538 379.942 37.6957C380.653 38.1376 381.241 38.6385 381.705 39.1982C382.168 39.7285 382.447 40.3325 382.54 41.0101L380.638 41.4078L381.148 36.1932H389.869V56.8308C389.869 58.9815 389.498 60.867 388.756 62.4874C388.045 64.1372 387.04 65.5219 385.741 66.6414C384.442 67.7609 382.895 68.6006 381.101 69.1603C379.339 69.7201 377.421 70 375.349 70ZM375.071 52.7651C376.246 52.7651 377.251 52.5736 378.086 52.1906C378.921 51.8077 379.555 51.2626 379.988 50.5555C380.421 49.819 380.638 48.9352 380.638 47.904C380.638 46.8729 380.421 45.989 379.988 45.2525C379.555 44.516 378.921 43.9562 378.086 43.5732C377.251 43.1902 376.246 42.9987 375.071 42.9987C373.834 42.9987 372.782 43.1902 371.916 43.5732C371.081 43.9562 370.432 44.516 369.968 45.2525C369.504 45.989 369.272 46.8729 369.272 47.904C369.272 48.9352 369.504 49.819 369.968 50.5555C370.432 51.2626 371.081 51.8077 371.916 52.1906C372.782 52.5736 373.834 52.7651 375.071 52.7651Z" fill="#F1F1F1"/>
<path d="M410.436 60.2778C407.436 60.2778 404.792 59.8948 402.503 59.1288C400.215 58.3333 398.405 57.2874 397.076 55.9912L402.55 51.4394C403.57 52.2938 404.854 52.9566 406.4 53.428C407.947 53.8994 409.493 54.1351 411.039 54.1351C411.441 54.1351 411.812 54.1056 412.153 54.0467C412.524 53.9878 412.818 53.9141 413.034 53.8257C413.282 53.7079 413.467 53.5753 413.591 53.428C413.745 53.2807 413.823 53.1039 413.823 52.8977C413.823 52.5442 413.56 52.2643 413.034 52.0581C412.57 51.9108 411.921 51.7635 411.086 51.6162C410.282 51.4688 409.4 51.3068 408.441 51.13C406.833 50.8649 405.395 50.5408 404.127 50.1578C402.89 49.7748 401.823 49.2887 400.926 48.6995C400.06 48.0513 399.38 47.3001 398.885 46.4457C398.39 45.5619 398.143 44.5454 398.143 43.3965C398.143 42.1885 398.467 41.1132 399.117 40.1704C399.766 39.1982 400.663 38.388 401.807 37.7399C402.952 37.0917 404.251 36.5909 405.704 36.2374C407.158 35.8838 408.658 35.7071 410.204 35.7071C411.843 35.7071 413.405 35.8396 414.89 36.1048C416.405 36.3699 417.843 36.7529 419.204 37.2538C420.565 37.7546 421.787 38.388 422.869 39.154L418.184 44.3245C417.534 43.912 416.745 43.5143 415.818 43.1313C414.921 42.7188 413.931 42.38 412.849 42.1149C411.797 41.8497 410.745 41.7172 409.694 41.7172C409.292 41.7172 408.921 41.7466 408.581 41.8055C408.271 41.835 408.008 41.9087 407.792 42.0265C407.575 42.1149 407.405 42.2327 407.282 42.38C407.158 42.4979 407.096 42.6452 407.096 42.822C407.065 43.0282 407.112 43.2197 407.235 43.3965C407.39 43.5438 407.591 43.6763 407.838 43.7942C408.24 44.0004 408.843 44.1919 409.648 44.3687C410.483 44.516 411.55 44.7222 412.849 44.9874C414.952 45.3998 416.699 45.8712 418.091 46.4015C419.482 46.9318 420.58 47.5505 421.384 48.2576C421.941 48.7289 422.359 49.3034 422.637 49.9811C422.915 50.6292 423.055 51.3363 423.055 52.1023C423.055 53.6637 422.513 55.0631 421.431 56.3005C420.379 57.5084 418.91 58.4806 417.024 59.2172C415.168 59.9242 412.972 60.2778 410.436 60.2778Z" fill="#F1F1F1"/>
</g>
<defs>
<clipPath id="clip0_1_2">
<rect width="423.05" height="70" fill="white"/>
</clipPath>
</defs>
</svg>
