<svg width="495" height="60" viewBox="0 0 495 60" fill="none" xmlns="http://www.w3.org/2000/svg">
<path d="M40.1333 59.3939V0H58.4606V59.3939H40.1333ZM0 59.3939V0H18.3273V59.3939H0ZM6.87273 37.9273L6.95758 21.9758H50.4848V37.9273H6.87273Z" fill="black"/>
<path d="M93.5043 59.3939V15.6121H72.8013V0H133.044V15.6121H111.832V59.3939H93.5043Z" fill="black"/>
<path d="M147.491 59.3939V0H163.272L187.03 34.5333L174.642 34.4485L198.654 0H214.097V59.3939H196.448V44.8849C196.448 39.9636 196.561 35.4667 196.788 31.3939C197.07 27.2646 197.523 23.1354 198.145 19.0061L200.097 24.5212L183.466 46.9212H177.866L161.321 24.3515L163.442 19.0061C164.064 23.0222 164.489 27.0667 164.715 31.1394C164.998 35.1556 165.139 39.7374 165.139 44.8849V59.3939H147.491Z" fill="black"/>
<path d="M233.416 59.3939V0H251.743V43.7818H281.95V59.3939H233.416Z" fill="black"/>
<path d="M313.824 59C310.72 59 307.984 58.584 305.616 57.752C303.248 56.888 301.376 55.752 300 54.344L305.664 49.4C306.72 50.328 308.048 51.048 309.648 51.56C311.248 52.072 312.848 52.328 314.448 52.328C314.864 52.328 315.248 52.296 315.6 52.232C315.984 52.168 316.288 52.088 316.512 51.992C316.768 51.864 316.96 51.72 317.088 51.56C317.248 51.4 317.328 51.208 317.328 50.984C317.328 50.6 317.056 50.296 316.512 50.072C316.032 49.912 315.36 49.752 314.496 49.592C313.664 49.432 312.752 49.256 311.76 49.064C310.096 48.776 308.608 48.424 307.296 48.008C306.016 47.592 304.912 47.064 303.984 46.424C303.088 45.72 302.384 44.904 301.872 43.976C301.36 43.016 301.104 41.912 301.104 40.664C301.104 39.352 301.44 38.184 302.112 37.16C302.784 36.104 303.712 35.224 304.896 34.52C306.08 33.816 307.424 33.272 308.928 32.888C310.432 32.504 311.984 32.312 313.584 32.312C315.28 32.312 316.896 32.456 318.432 32.744C320 33.032 321.488 33.448 322.896 33.992C324.304 34.536 325.568 35.224 326.688 36.056L321.84 41.672C321.168 41.224 320.352 40.792 319.392 40.376C318.464 39.928 317.44 39.56 316.32 39.272C315.232 38.984 314.144 38.84 313.056 38.84C312.64 38.84 312.256 38.872 311.904 38.936C311.584 38.968 311.312 39.048 311.088 39.176C310.864 39.272 310.688 39.4 310.56 39.56C310.432 39.688 310.368 39.848 310.368 40.04C310.336 40.264 310.384 40.472 310.512 40.664C310.672 40.824 310.88 40.968 311.136 41.096C311.552 41.32 312.176 41.528 313.008 41.72C313.872 41.88 314.976 42.104 316.32 42.392C318.496 42.84 320.304 43.352 321.744 43.928C323.184 44.504 324.32 45.176 325.152 45.944C325.728 46.456 326.16 47.08 326.448 47.816C326.736 48.52 326.88 49.288 326.88 50.12C326.88 51.816 326.32 53.336 325.2 54.68C324.112 55.992 322.592 57.048 320.64 57.848C318.72 58.616 316.448 59 313.824 59Z" fill="#F1F1F1"/>
<path d="M347.63 59C344.654 59 342.014 58.424 339.71 57.272C337.438 56.12 335.646 54.552 334.334 52.568C333.054 50.552 332.414 48.248 332.414 45.656C332.414 43.064 333.054 40.776 334.334 38.792C335.646 36.776 337.406 35.192 339.614 34.04C341.854 32.888 344.398 32.312 347.246 32.312C349.838 32.312 352.222 32.664 354.398 33.368C356.574 34.04 358.414 35.032 359.918 36.344L354.638 42.872C354.126 42.456 353.534 42.072 352.862 41.72C352.222 41.368 351.518 41.096 350.75 40.904C349.982 40.712 349.134 40.616 348.206 40.616C346.958 40.616 345.87 40.824 344.942 41.24C344.046 41.656 343.358 42.248 342.878 43.016C342.43 43.752 342.206 44.616 342.206 45.608C342.206 46.568 342.43 47.432 342.878 48.2C343.326 48.936 343.998 49.528 344.894 49.976C345.79 50.424 346.862 50.648 348.11 50.648C349.198 50.648 350.142 50.568 350.942 50.408C351.742 50.216 352.446 49.992 353.054 49.736C353.694 49.448 354.222 49.128 354.638 48.776L359.87 55.256C358.366 56.408 356.574 57.32 354.494 57.992C352.414 58.664 350.126 59 347.63 59Z" fill="#F1F1F1"/>
<path d="M368.285 58.52V23H377.789V38.792L375.485 39.608C375.805 38.2 376.477 36.952 377.501 35.864C378.525 34.776 379.789 33.912 381.293 33.272C382.797 32.632 384.413 32.312 386.141 32.312C388.317 32.312 390.157 32.76 391.661 33.656C393.197 34.552 394.349 35.8 395.117 37.4C395.885 38.968 396.269 40.792 396.269 42.872V58.52H386.525V44.552C386.525 43.592 386.365 42.808 386.045 42.2C385.725 41.56 385.245 41.064 384.605 40.712C383.997 40.36 383.277 40.2 382.445 40.232C381.805 40.232 381.213 40.328 380.669 40.52C380.125 40.712 379.645 41 379.229 41.384C378.845 41.768 378.541 42.232 378.317 42.776C378.125 43.288 378.029 43.864 378.029 44.504V58.52H373.181C371.805 58.52 370.701 58.52 369.869 58.52C369.069 58.52 368.541 58.52 368.285 58.52Z" fill="#F1F1F1"/>
<path d="M421.008 59C417.904 59 415.152 58.424 412.752 57.272C410.352 56.12 408.464 54.552 407.088 52.568C405.712 50.552 405.024 48.248 405.024 45.656C405.024 43.064 405.712 40.776 407.088 38.792C408.464 36.776 410.352 35.192 412.752 34.04C415.152 32.888 417.904 32.312 421.008 32.312C424.112 32.312 426.848 32.888 429.216 34.04C431.616 35.192 433.488 36.776 434.832 38.792C436.208 40.776 436.896 43.064 436.896 45.656C436.896 48.248 436.208 50.552 434.832 52.568C433.488 54.552 431.616 56.12 429.216 57.272C426.848 58.424 424.112 59 421.008 59ZM421.008 50.84C422.128 50.84 423.136 50.616 424.032 50.168C424.96 49.72 425.696 49.112 426.24 48.344C426.784 47.544 427.056 46.648 427.056 45.656C427.056 44.632 426.784 43.72 426.24 42.92C425.696 42.12 424.96 41.512 424.032 41.096C423.136 40.648 422.128 40.424 421.008 40.424C419.888 40.424 418.848 40.648 417.888 41.096C416.928 41.544 416.176 42.152 415.632 42.92C415.12 43.688 414.864 44.6 414.864 45.656C414.864 46.648 415.12 47.544 415.632 48.344C416.176 49.112 416.928 49.72 417.888 50.168C418.848 50.616 419.888 50.84 421.008 50.84Z" fill="#F1F1F1"/>
<path d="M459.586 59C456.482 59 453.73 58.424 451.33 57.272C448.93 56.12 447.042 54.552 445.666 52.568C444.29 50.552 443.602 48.248 443.602 45.656C443.602 43.064 444.29 40.776 445.666 38.792C447.042 36.776 448.93 35.192 451.33 34.04C453.73 32.888 456.482 32.312 459.586 32.312C462.69 32.312 465.426 32.888 467.794 34.04C470.194 35.192 472.066 36.776 473.41 38.792C474.786 40.776 475.474 43.064 475.474 45.656C475.474 48.248 474.786 50.552 473.41 52.568C472.066 54.552 470.194 56.12 467.794 57.272C465.426 58.424 462.69 59 459.586 59ZM459.586 50.84C460.706 50.84 461.714 50.616 462.61 50.168C463.538 49.72 464.274 49.112 464.818 48.344C465.362 47.544 465.634 46.648 465.634 45.656C465.634 44.632 465.362 43.72 464.818 42.92C464.274 42.12 463.538 41.512 462.61 41.096C461.714 40.648 460.706 40.424 459.586 40.424C458.466 40.424 457.426 40.648 456.466 41.096C455.506 41.544 454.754 42.152 454.21 42.92C453.698 43.688 453.442 44.6 453.442 45.656C453.442 46.648 453.698 47.544 454.21 48.344C454.754 49.112 455.506 49.72 456.466 50.168C457.426 50.616 458.466 50.84 459.586 50.84Z" fill="#F1F1F1"/>
<path d="M484.772 58.52V23H494.516V58.52H484.772Z" fill="#F1F1F1"/>
</svg>
