<svg xmlns="http://www.w3.org/2000/svg" width="259" height="36" viewBox="0 0 259 36" fill="none">
<path d="M70.2088 32.7725L71.7155 22.4073L63.5317 28.8941L59.5597 22.0298L68.9419 18.0141L59.5597 14.273L63.5317 7.40865L71.6812 13.5523L70.2088 3.53028H78.1528L76.9544 13.3463L84.8299 7.40865L88.8019 14.273L79.3855 18.0141L88.8019 22.0298L84.8299 28.8941L76.9202 22.6476L78.1528 32.7725H70.2088Z" fill="#4438CD"/>
<path d="M0 35.3567V0.29154H9.64291C12.1665 0.29154 14.0659 0.995499 15.341 2.40342C16.6161 3.79805 17.2536 5.84352 17.2536 8.53982V24.9567C17.2536 28.2772 16.6692 30.8407 15.5004 32.6471C14.3448 34.4535 12.3126 35.3567 9.40383 35.3567H0ZM7.05288 29.1605H8.2682C9.55658 29.1605 10.2008 28.5363 10.2008 27.2877V9.19729C10.2008 8.02845 10.0414 7.278 9.72261 6.94595C9.41712 6.60061 8.78621 6.42794 7.82989 6.42794H7.05288V29.1605Z" fill="#050505"/>
<path d="M20.1226 35.3567V0.29154H34.1487V7.06549H27.2552V13.8992H33.8697V20.4938H27.2552V28.523H34.6069V35.3567H20.1226Z" fill="#050505"/>
<path d="M40.1655 35.3567L35.8422 0.271616H42.5165L45.0866 24.1398L47.3778 0.271616H54.0521L49.7287 35.3567H40.1655Z" fill="#050505"/>
<path d="M122.433 18.27C129.627 18.27 133.224 20.5577 133.224 25.1331C133.224 27.2788 132.735 29.1089 131.757 30.6235C130.779 32.1066 129.028 33.2741 126.503 34.1261C123.979 34.9465 120.476 35.3567 115.996 35.3567H94.6964C94.9488 29.2351 95.075 23.508 95.075 18.1753C95.075 12.8426 94.9488 7.11551 94.6964 0.993964H105.819V1.0413H115.901C119.814 1.0413 122.89 1.37262 125.131 2.03526C127.402 2.66635 128.996 3.5972 129.911 4.82782C130.858 6.05844 131.331 7.62038 131.331 9.51365C131.331 11.4385 130.653 13.1582 129.296 14.6728C127.97 16.1558 125.683 17.3549 122.433 18.27ZM105.819 9.65564V14.0575H114.907C116.863 14.0575 118.22 13.8839 118.977 13.5368C119.766 13.1897 120.161 12.5586 120.161 11.6436C120.161 10.9178 119.751 10.4129 118.93 10.129C118.141 9.81341 116.8 9.65564 114.907 9.65564H105.819ZM114.907 26.695C116.548 26.695 117.794 26.6319 118.646 26.5057C119.53 26.3479 120.161 26.0955 120.539 25.7484C120.918 25.3697 121.107 24.8649 121.107 24.2338C121.107 23.4134 120.65 22.8296 119.735 22.4825C118.851 22.1038 117.242 21.9145 114.907 21.9145H105.819V26.695H114.907Z" fill="#050505"/>
<path d="M148.539 25.7957C157.689 25.7326 165.262 25.5748 171.258 25.3224C170.848 26.9317 170.595 28.4778 170.5 29.9609C170.406 31.4439 170.358 33.2425 170.358 35.3567H136.99C137.242 29.2351 137.368 23.508 137.368 18.1753C137.368 12.8426 137.242 7.11551 136.99 0.993964H148.539V25.7957Z" fill="#050505"/>
<path d="M193.736 35.83C186.51 35.83 181.193 34.2681 177.785 31.1442C174.377 27.9887 172.673 23.5711 172.673 17.8913C172.673 12.2747 174.361 7.8886 177.738 4.73316C181.146 1.57772 186.478 0 193.736 0C201.025 0 206.358 1.57772 209.734 4.73316C213.142 7.8886 214.846 12.2747 214.846 17.8913C214.846 23.6027 213.158 28.0203 209.781 31.1442C206.405 34.2681 201.056 35.83 193.736 35.83ZM193.736 26.1744C197.238 26.1744 199.763 25.5117 201.309 24.1864C202.855 22.8296 203.628 20.7312 203.628 17.8913C203.628 15.1146 202.855 13.0477 201.309 11.6909C199.763 10.3341 197.238 9.65564 193.736 9.65564C190.265 9.65564 187.756 10.3341 186.21 11.6909C184.664 13.0477 183.891 15.1146 183.891 17.8913C183.891 20.6997 184.664 22.7823 186.21 24.1391C187.756 25.4959 190.265 26.1744 193.736 26.1744Z" fill="#050505"/>
<path d="M238.119 15.7614H258.329V35.3567H249.999L249.005 26.979C248.058 29.9767 246.37 32.2012 243.941 33.6528C241.511 35.1043 238.545 35.83 235.042 35.83C231.855 35.83 229.015 35.12 226.523 33.7001C224.061 32.2801 222.121 30.2449 220.701 27.5943C219.312 24.9437 218.618 21.8514 218.618 18.3173C218.618 12.6691 220.306 8.20414 223.683 4.92249C227.059 1.64083 232.313 0 239.444 0C243.515 0 247.096 0.662642 250.188 1.98793C253.312 3.31321 255.963 5.36424 258.14 8.14103C256.72 8.86678 253.943 10.3183 249.81 12.4955L248.626 13.1582C247.396 11.9276 245.96 11.0125 244.319 10.4129C242.678 9.78186 240.943 9.46631 239.113 9.46631C236.083 9.46631 233.827 10.271 232.344 11.8802C230.861 13.4579 230.12 15.4143 230.12 17.7493C230.12 20.2737 230.909 22.309 232.486 23.8551C234.096 25.4013 236.541 26.1744 239.823 26.1744C241.243 26.1744 242.615 25.9693 243.941 25.5591C245.297 25.1488 246.433 24.4389 247.348 23.4291H238.119V15.7614Z" fill="#050505"/>
</svg>